<?xml version="1.0" encoding="UTF-8" standalone="no"?>
<!DOCTYPE svg PUBLIC "-//W3C//DTD SVG 1.1//EN" "http://www.w3.org/Graphics/SVG/1.1/DTD/svg11.dtd">
<svg width="100%" height="100%" viewBox="0 0 627 327" version="1.1" xmlns="http://www.w3.org/2000/svg" xmlns:xlink="http://www.w3.org/1999/xlink" xml:space="preserve" xmlns:serif="http://www.serif.com/" style="fill-rule:evenodd;clip-rule:evenodd;stroke-linejoin:round;stroke-miterlimit:2;">
    <g id="Artboard2" transform="matrix(1.83871,0,0,0.979042,1132.65,-450.359)">
        <rect x="-616" y="460" width="341" height="334" style="fill:none;"/>
        <clipPath id="_clip1">
            <rect x="-616" y="460" width="341" height="334"/>
        </clipPath>
        <g clip-path="url(#_clip1)">
            <g transform="matrix(0.54386,0,0,1.03172,-816.956,268.992)">
                <g transform="matrix(1.11622,0,0,1.21534,-65.8274,121.937)">
                    <path d="M951.715,61.775C951.715,56.38 946.898,52 940.965,52L400.751,52C394.817,52 390,56.38 390,61.775L390,308.595C390,313.99 394.817,318.37 400.751,318.37L940.965,318.37C946.898,318.37 951.715,313.99 951.715,308.595L951.715,61.775Z" style="fill:rgb(24,26,33);"/>
                </g>
                <g transform="matrix(1.36106,0,0,1.36106,-277.054,-186.666)">
                    <g transform="matrix(1,0,0,0.99,-0.734368,160.562)">
                        <g transform="matrix(124.248,0,0,124.248,498,234)">
                            <path d="M0.425,-0.29C0.436,-0.277 0.449,-0.259 0.466,-0.237C0.482,-0.216 0.499,-0.192 0.516,-0.166C0.533,-0.139 0.551,-0.112 0.568,-0.083C0.585,-0.054 0.599,-0.027 0.611,-0L0.505,-0C0.492,-0.025 0.477,-0.051 0.462,-0.077C0.446,-0.103 0.43,-0.128 0.414,-0.152C0.398,-0.175 0.382,-0.197 0.367,-0.218C0.351,-0.239 0.337,-0.257 0.324,-0.272C0.315,-0.271 0.307,-0.271 0.298,-0.271L0.183,-0.271L0.183,-0L0.086,-0L0.086,-0.683C0.113,-0.69 0.144,-0.694 0.178,-0.697C0.211,-0.699 0.242,-0.7 0.27,-0.7C0.367,-0.7 0.442,-0.682 0.493,-0.645C0.544,-0.608 0.569,-0.554 0.569,-0.481C0.569,-0.435 0.557,-0.396 0.533,-0.363C0.508,-0.33 0.472,-0.306 0.425,-0.29ZM0.278,-0.615C0.237,-0.615 0.205,-0.614 0.183,-0.612L0.183,-0.351L0.252,-0.351C0.285,-0.351 0.315,-0.353 0.342,-0.356C0.369,-0.359 0.391,-0.366 0.409,-0.375C0.428,-0.384 0.442,-0.398 0.452,-0.414C0.462,-0.432 0.467,-0.454 0.467,-0.482C0.467,-0.508 0.462,-0.53 0.452,-0.547C0.442,-0.564 0.429,-0.578 0.411,-0.588C0.395,-0.598 0.375,-0.605 0.352,-0.609C0.329,-0.613 0.304,-0.615 0.278,-0.615Z" style="fill:white;fill-rule:nonzero;"/>
                        </g>
                        <g transform="matrix(124.248,0,0,124.248,576.152,234)">
                            <path d="M0.539,-0.26C0.539,-0.219 0.533,-0.181 0.521,-0.148C0.509,-0.115 0.492,-0.086 0.47,-0.062C0.449,-0.038 0.423,-0.02 0.393,-0.007C0.363,0.006 0.33,0.013 0.295,0.013C0.26,0.013 0.227,0.006 0.197,-0.007C0.167,-0.02 0.141,-0.038 0.119,-0.062C0.098,-0.086 0.081,-0.115 0.069,-0.148C0.057,-0.181 0.051,-0.219 0.051,-0.26C0.051,-0.301 0.057,-0.338 0.069,-0.372C0.081,-0.405 0.098,-0.434 0.119,-0.458C0.141,-0.482 0.167,-0.5 0.197,-0.514C0.227,-0.527 0.26,-0.533 0.295,-0.533C0.33,-0.533 0.363,-0.527 0.393,-0.514C0.423,-0.5 0.449,-0.482 0.47,-0.458C0.492,-0.434 0.509,-0.405 0.521,-0.372C0.533,-0.338 0.539,-0.301 0.539,-0.26ZM0.442,-0.26C0.442,-0.319 0.429,-0.365 0.403,-0.4C0.376,-0.434 0.34,-0.451 0.295,-0.451C0.25,-0.451 0.214,-0.434 0.188,-0.4C0.161,-0.365 0.148,-0.319 0.148,-0.26C0.148,-0.201 0.161,-0.155 0.188,-0.121C0.214,-0.086 0.25,-0.069 0.295,-0.069C0.34,-0.069 0.376,-0.086 0.403,-0.121C0.429,-0.155 0.442,-0.201 0.442,-0.26Z" style="fill:white;fill-rule:nonzero;"/>
                        </g>
                        <g transform="matrix(124.248,0,0,124.248,649.458,234)">
                            <path d="M0.256,-0.067C0.278,-0.067 0.298,-0.068 0.315,-0.069C0.332,-0.07 0.346,-0.071 0.357,-0.074L0.357,-0.229C0.35,-0.232 0.34,-0.235 0.325,-0.237C0.31,-0.24 0.291,-0.241 0.27,-0.241C0.256,-0.241 0.241,-0.24 0.226,-0.238C0.21,-0.236 0.196,-0.232 0.183,-0.226C0.17,-0.219 0.159,-0.211 0.15,-0.2C0.141,-0.189 0.137,-0.174 0.137,-0.156C0.137,-0.123 0.148,-0.1 0.169,-0.086C0.19,-0.074 0.219,-0.067 0.256,-0.067ZM0.248,-0.533C0.285,-0.533 0.317,-0.528 0.343,-0.519C0.368,-0.509 0.389,-0.495 0.405,-0.477C0.42,-0.46 0.431,-0.439 0.438,-0.414C0.445,-0.39 0.448,-0.363 0.448,-0.334L0.448,-0.009C0.44,-0.008 0.429,-0.006 0.414,-0.004C0.4,-0.001 0.384,0.001 0.366,0.003C0.348,0.005 0.329,0.007 0.308,0.008C0.286,0.01 0.266,0.011 0.245,0.011C0.216,0.011 0.189,0.008 0.164,0.002C0.139,-0.004 0.118,-0.014 0.1,-0.027C0.082,-0.04 0.068,-0.057 0.058,-0.078C0.048,-0.099 0.043,-0.125 0.043,-0.155C0.043,-0.184 0.049,-0.208 0.061,-0.229C0.072,-0.25 0.088,-0.266 0.108,-0.279C0.128,-0.292 0.151,-0.301 0.178,-0.307C0.205,-0.313 0.233,-0.316 0.262,-0.316C0.271,-0.316 0.281,-0.316 0.291,-0.315C0.301,-0.314 0.311,-0.312 0.32,-0.311C0.329,-0.309 0.336,-0.307 0.343,-0.306C0.35,-0.305 0.354,-0.304 0.357,-0.303L0.357,-0.329C0.357,-0.344 0.355,-0.36 0.352,-0.375C0.349,-0.39 0.343,-0.403 0.334,-0.414C0.325,-0.426 0.314,-0.436 0.299,-0.443C0.283,-0.45 0.264,-0.453 0.24,-0.453C0.209,-0.453 0.183,-0.451 0.16,-0.447C0.137,-0.442 0.119,-0.438 0.108,-0.433L0.097,-0.51C0.109,-0.515 0.129,-0.521 0.157,-0.526C0.185,-0.531 0.215,-0.533 0.248,-0.533Z" style="fill:white;fill-rule:nonzero;"/>
                        </g>
                        <g transform="matrix(124.248,0,0,124.248,714.316,234)">
                            <path d="M0.306,0.012C0.264,0.012 0.227,0.005 0.196,-0.008C0.164,-0.021 0.137,-0.04 0.116,-0.064C0.094,-0.088 0.078,-0.117 0.067,-0.15C0.056,-0.183 0.051,-0.219 0.051,-0.259C0.051,-0.299 0.057,-0.336 0.069,-0.369C0.08,-0.402 0.097,-0.431 0.118,-0.456C0.139,-0.48 0.166,-0.499 0.197,-0.513C0.228,-0.526 0.262,-0.533 0.3,-0.533C0.323,-0.533 0.347,-0.531 0.37,-0.527C0.393,-0.523 0.416,-0.517 0.437,-0.508L0.416,-0.429C0.402,-0.436 0.386,-0.441 0.368,-0.445C0.349,-0.449 0.33,-0.451 0.309,-0.451C0.257,-0.451 0.217,-0.435 0.19,-0.402C0.162,-0.369 0.148,-0.322 0.148,-0.259C0.148,-0.231 0.151,-0.205 0.158,-0.182C0.164,-0.159 0.174,-0.139 0.188,-0.122C0.201,-0.105 0.219,-0.093 0.24,-0.084C0.261,-0.075 0.287,-0.07 0.318,-0.07C0.343,-0.07 0.365,-0.072 0.385,-0.077C0.405,-0.082 0.421,-0.087 0.432,-0.092L0.445,-0.014C0.44,-0.011 0.432,-0.008 0.422,-0.005C0.412,-0.002 0.401,0.001 0.388,0.003C0.375,0.006 0.362,0.008 0.347,0.009C0.333,0.011 0.319,0.012 0.306,0.012Z" style="fill:white;fill-rule:nonzero;"/>
                        </g>
                        <g transform="matrix(124.248,0,0,124.248,772.091,234)">
                            <path d="M0.167,-0.52L0.364,-0.52L0.364,-0.442L0.167,-0.442L0.167,-0.202C0.167,-0.176 0.169,-0.155 0.173,-0.138C0.177,-0.121 0.183,-0.107 0.191,-0.098C0.199,-0.088 0.209,-0.081 0.221,-0.077C0.233,-0.073 0.247,-0.071 0.263,-0.071C0.291,-0.071 0.314,-0.074 0.331,-0.081C0.347,-0.087 0.359,-0.091 0.366,-0.094L0.384,-0.017C0.375,-0.012 0.358,-0.007 0.335,0C0.312,0.007 0.285,0.011 0.255,0.011C0.22,0.011 0.191,0.006 0.168,-0.003C0.145,-0.012 0.126,-0.025 0.112,-0.043C0.098,-0.061 0.088,-0.083 0.083,-0.11C0.077,-0.136 0.074,-0.166 0.074,-0.201L0.074,-0.665L0.167,-0.681L0.167,-0.52Z" style="fill:white;fill-rule:nonzero;"/>
                        </g>
                    </g>
                    <g transform="matrix(0.73472,0,0,0.727372,475.036,273.169)">
                        <rect x="44.8" y="161" width="4.2" height="6" style="fill:white;"/>
                    </g>
                    <g transform="matrix(1,0,0,0.99,0,244.812)">
                        <g transform="matrix(124.248,0,0,124.248,498,234)">
                            <path d="M0.283,-0.701C0.387,-0.701 0.467,-0.683 0.522,-0.646C0.577,-0.609 0.605,-0.551 0.605,-0.473C0.605,-0.424 0.594,-0.385 0.572,-0.355C0.549,-0.324 0.517,-0.3 0.475,-0.283C0.489,-0.266 0.504,-0.246 0.519,-0.224C0.534,-0.201 0.55,-0.178 0.565,-0.154C0.58,-0.129 0.594,-0.104 0.608,-0.078C0.622,-0.051 0.635,-0.025 0.647,-0L0.473,-0C0.46,-0.023 0.447,-0.046 0.434,-0.069C0.421,-0.092 0.408,-0.115 0.394,-0.137C0.38,-0.159 0.367,-0.18 0.353,-0.2C0.34,-0.219 0.326,-0.237 0.313,-0.253L0.236,-0.253L0.236,-0L0.08,-0L0.08,-0.683C0.114,-0.69 0.149,-0.694 0.186,-0.697C0.222,-0.7 0.254,-0.701 0.283,-0.701ZM0.292,-0.568C0.281,-0.568 0.271,-0.568 0.262,-0.567C0.253,-0.566 0.244,-0.566 0.236,-0.565L0.236,-0.377L0.28,-0.377C0.339,-0.377 0.381,-0.384 0.406,-0.399C0.431,-0.414 0.444,-0.439 0.444,-0.474C0.444,-0.508 0.431,-0.532 0.406,-0.547C0.38,-0.561 0.342,-0.568 0.292,-0.568Z" style="fill:white;fill-rule:nonzero;"/>
                        </g>
                        <g transform="matrix(124.248,0,0,124.248,577.767,234)">
                            <path d="M0.562,-0.264C0.562,-0.223 0.556,-0.185 0.544,-0.151C0.532,-0.116 0.515,-0.087 0.492,-0.063C0.469,-0.038 0.442,-0.019 0.41,-0.006C0.379,0.007 0.343,0.014 0.304,0.014C0.265,0.014 0.23,0.007 0.199,-0.006C0.167,-0.019 0.14,-0.038 0.117,-0.063C0.094,-0.087 0.077,-0.116 0.064,-0.151C0.051,-0.185 0.045,-0.223 0.045,-0.264C0.045,-0.305 0.051,-0.343 0.065,-0.377C0.078,-0.411 0.096,-0.44 0.118,-0.464C0.141,-0.488 0.169,-0.507 0.201,-0.52C0.232,-0.533 0.267,-0.54 0.304,-0.54C0.342,-0.54 0.377,-0.533 0.408,-0.52C0.44,-0.507 0.467,-0.488 0.49,-0.464C0.513,-0.44 0.53,-0.411 0.543,-0.377C0.556,-0.343 0.562,-0.305 0.562,-0.264ZM0.41,-0.264C0.41,-0.31 0.401,-0.346 0.383,-0.373C0.364,-0.399 0.338,-0.412 0.304,-0.412C0.27,-0.412 0.244,-0.399 0.225,-0.373C0.206,-0.346 0.197,-0.31 0.197,-0.264C0.197,-0.218 0.206,-0.182 0.225,-0.155C0.244,-0.128 0.27,-0.114 0.304,-0.114C0.338,-0.114 0.364,-0.128 0.383,-0.155C0.401,-0.182 0.41,-0.218 0.41,-0.264Z" style="fill:white;fill-rule:nonzero;"/>
                        </g>
                        <g transform="matrix(124.248,0,0,124.248,653.186,234)">
                            <path d="M0.519,-0.018C0.494,-0.011 0.461,-0.004 0.421,0.002C0.381,0.009 0.339,0.012 0.295,0.012C0.25,0.012 0.213,0.006 0.184,-0.006C0.154,-0.018 0.13,-0.035 0.113,-0.057C0.096,-0.078 0.083,-0.104 0.076,-0.134C0.069,-0.164 0.065,-0.197 0.065,-0.233L0.065,-0.526L0.214,-0.526L0.214,-0.251C0.214,-0.203 0.22,-0.168 0.233,-0.147C0.246,-0.126 0.269,-0.115 0.304,-0.115C0.315,-0.115 0.326,-0.116 0.338,-0.117C0.35,-0.117 0.361,-0.119 0.37,-0.12L0.37,-0.526L0.519,-0.526L0.519,-0.018Z" style="fill:white;fill-rule:nonzero;"/>
                        </g>
                        <g transform="matrix(124.248,0,0,124.248,726.368,234)">
                            <path d="M0.065,-0.657L0.214,-0.681L0.214,-0.526L0.393,-0.526L0.393,-0.402L0.214,-0.402L0.214,-0.217C0.214,-0.186 0.22,-0.161 0.231,-0.142C0.242,-0.123 0.264,-0.114 0.297,-0.114C0.313,-0.114 0.33,-0.116 0.346,-0.118C0.364,-0.122 0.379,-0.126 0.393,-0.131L0.414,-0.015C0.396,-0.008 0.376,-0.001 0.354,0.004C0.332,0.009 0.305,0.012 0.273,0.012C0.232,0.012 0.199,0.006 0.172,-0.005C0.145,-0.016 0.124,-0.031 0.108,-0.051C0.092,-0.07 0.081,-0.094 0.075,-0.122C0.068,-0.15 0.065,-0.181 0.065,-0.215L0.065,-0.657Z" style="fill:white;fill-rule:nonzero;"/>
                        </g>
                        <g transform="matrix(124.248,0,0,124.248,779.049,234)">
                            <path d="M0.045,-0.259C0.045,-0.306 0.052,-0.346 0.067,-0.382C0.081,-0.417 0.1,-0.446 0.123,-0.469C0.146,-0.492 0.173,-0.51 0.203,-0.522C0.234,-0.534 0.265,-0.54 0.297,-0.54C0.372,-0.54 0.431,-0.517 0.474,-0.471C0.517,-0.426 0.539,-0.359 0.539,-0.27C0.539,-0.261 0.539,-0.252 0.538,-0.242C0.537,-0.231 0.537,-0.222 0.536,-0.214L0.198,-0.214C0.201,-0.183 0.216,-0.159 0.241,-0.141C0.266,-0.123 0.3,-0.114 0.343,-0.114C0.37,-0.114 0.397,-0.117 0.424,-0.122C0.45,-0.127 0.471,-0.133 0.488,-0.14L0.508,-0.019C0.5,-0.015 0.489,-0.011 0.476,-0.007C0.463,-0.003 0.448,0 0.432,0.003C0.415,0.006 0.398,0.009 0.379,0.011C0.36,0.013 0.342,0.014 0.323,0.014C0.276,0.014 0.234,0.007 0.2,-0.007C0.165,-0.021 0.136,-0.04 0.113,-0.065C0.09,-0.089 0.073,-0.118 0.062,-0.151C0.051,-0.184 0.045,-0.22 0.045,-0.259ZM0.395,-0.316C0.394,-0.329 0.392,-0.341 0.389,-0.353C0.385,-0.365 0.379,-0.376 0.372,-0.385C0.364,-0.394 0.354,-0.402 0.343,-0.408C0.331,-0.414 0.316,-0.417 0.299,-0.417C0.282,-0.417 0.268,-0.414 0.256,-0.408C0.244,-0.403 0.234,-0.395 0.226,-0.386C0.218,-0.377 0.212,-0.366 0.207,-0.354C0.203,-0.341 0.2,-0.329 0.198,-0.316L0.395,-0.316Z" style="fill:white;fill-rule:nonzero;"/>
                        </g>
                        <g transform="matrix(124.248,0,0,124.248,851.61,234)">
                            <path d="M0.387,-0.394C0.374,-0.397 0.358,-0.401 0.34,-0.405C0.322,-0.408 0.303,-0.41 0.282,-0.41C0.273,-0.41 0.262,-0.409 0.249,-0.407C0.235,-0.406 0.226,-0.404 0.219,-0.402L0.219,-0L0.07,-0L0.07,-0.498C0.097,-0.507 0.128,-0.516 0.165,-0.525C0.201,-0.533 0.241,-0.537 0.286,-0.537C0.294,-0.537 0.304,-0.537 0.315,-0.536C0.326,-0.535 0.338,-0.533 0.349,-0.532C0.36,-0.53 0.372,-0.528 0.383,-0.526C0.394,-0.523 0.404,-0.52 0.412,-0.517L0.387,-0.394Z" style="fill:white;fill-rule:nonzero;"/>
                        </g>
                    </g>
                </g>
            </g>
        </g>
    </g>
</svg>
